HIERARCHY
ROOT Hips
{
	OFFSET 0.00 0.00 0.00
	CHANNELS 6 Xposition Yposition Zposition Yrotation Xrotation Zrotation
	JOINT Spine
	{
		OFFSET	0.0000	9.2263	1.5771
		CHANNELS 3 Xrotation Yrotation Zrotation
		JOINT Spine1
		{
			OFFSET	0.0000	16.2540	-0.1656
			CHANNELS 3 Xrotation Yrotation Zrotation
			JOINT Spine2
			{
				OFFSET	0.0000	13.6396	-1.2923
				CHANNELS 3 Xrotation Yrotation Zrotation
				JOINT Neck
				{
					OFFSET	0.0000	13.8774	-4.3542
					CHANNELS 3 Xrotation Yrotation Zrotation
					JOINT Neck1
					{
						OFFSET	0.0000	4.3400	0.9269
						CHANNELS 3 Xrotation Yrotation Zrotation
						JOINT Head
						{
							OFFSET	0.0000	4.0266	0.8585
							CHANNELS 3 Xrotation Yrotation Zrotation
							End Site
							{
								OFFSET 0.0000 23.0297 0.1231
							}
						}
					}
				}
				JOINT LeftShoulder
				{
					OFFSET	6.1442	10.1870	-3.7932
					CHANNELS 3 Zrotation Xrotation Yrotation
					JOINT LeftArm
					{
						OFFSET	12.3191	-1.1130	-1.7935
						CHANNELS 3 Zrotation Xrotation Yrotation
						JOINT LeftForeArm
						{
							OFFSET	27.6870	0.0000	0.0000
							CHANNELS 3 Xrotation Zrotation Yrotation
							JOINT LeftHand
							{
								OFFSET	27.8738	0.0000	0.0000
								CHANNELS 3 Zrotation Yrotation Xrotation
								JOINT LeftHandThumb1
								{
									OFFSET	2.3785	-1.0029	2.6209
									CHANNELS 3 Zrotation Xrotation Yrotation
									JOINT LeftHandThumb2
									{
										OFFSET	3.3624	-1.0029	2.8398
										CHANNELS 3 Zrotation Xrotation Yrotation
										JOINT LeftHandThumb3
										{
											OFFSET	4.5018	-1.3445	2.1783
											CHANNELS 3 Zrotation Xrotation Yrotation
											End Site
											{
												OFFSET 2.6000 -1.0000 1.0000
											}
										}
									}
								}
								JOINT LeftHandMiddle1
								{
									OFFSET	10.4639	0.6148	0.4298
									CHANNELS 3 Zrotation Xrotation Yrotation
									JOINT LeftHandMiddle2
									{
										OFFSET	5.7921	0.0000	0.0000
										CHANNELS 3 Zrotation Xrotation Yrotation
										JOINT LeftHandMiddle3
										{
											OFFSET	3.7132	0.0000	0.0000
											CHANNELS 3 Zrotation Xrotation Yrotation
											End Site
											{
												OFFSET 2.3000 0.0000 0.0000
											}
										}
									}
								}
								JOINT LeftHandIndex1
								{
									OFFSET	10.3945	0.6148	2.7055
									CHANNELS 3 Zrotation Xrotation Yrotation
									JOINT LeftHandIndex2
									{
										OFFSET	5.5493	0.0000	0.0000
										CHANNELS 3 Zrotation Xrotation Yrotation
										JOINT LeftHandIndex3
										{
											OFFSET	3.3911	0.0000	0.0000
											CHANNELS 3 Zrotation Xrotation Yrotation
											End Site
											{
												OFFSET 2.5000 0.0000 0.0000
											}
										}
									}
								}
								JOINT LeftHandRing1
								{
									OFFSET	10.3252	0.3211	-1.8755
									CHANNELS 3 Zrotation Xrotation Yrotation
									JOINT LeftHandRing2
									{
										OFFSET	5.4452	0.0000	0.0000
										CHANNELS 3 Zrotation Xrotation Yrotation
										JOINT LeftHandRing3
										{
											OFFSET	3.7132	0.0000	0.0000
											CHANNELS 3 Zrotation Xrotation Yrotation
											End Site
											{
												OFFSET 2.0000 0.0000 0.0000
											}
										}
									}
								}
								JOINT LeftHandPinky1
								{
									OFFSET	10.0130	-0.0783	-3.9671
									CHANNELS 3 Zrotation Xrotation Yrotation
									JOINT LeftHandPinky2
									{
										OFFSET	3.6763	0.0000	0.0000
										CHANNELS 3 Zrotation Xrotation Yrotation
										JOINT LeftHandPinky3
										{
											OFFSET	2.8113	0.0000	0.0000
											CHANNELS 3 Zrotation Xrotation Yrotation
											End Site
											{
												OFFSET 2.9000 0.0000 0.0000
											}
										}
									}
								}
							}
						}
					}
				}
				JOINT RightShoulder
				{
					OFFSET	-6.1402	10.1870	-3.7932
					CHANNELS 3 Zrotation Xrotation Yrotation
					JOINT RightArm
					{
						OFFSET	-12.3231	-1.1130	-1.7935
						CHANNELS 3 Zrotation Xrotation Yrotation
						JOINT RightForeArm
						{
							OFFSET	-27.6870	0.0000	0.0000
							CHANNELS 3 Xrotation Zrotation Yrotation
							JOINT RightHand
							{
								OFFSET	-27.8738	0.0000	0.0000
								CHANNELS 3 Zrotation Yrotation Xrotation
								JOINT RightHandThumb1
								{
									OFFSET	-2.5178	-0.9367	2.5137
									CHANNELS 3 Zrotation Xrotation Yrotation
									JOINT RightHandThumb2
									{
										OFFSET	-3.2638	-1.0870	2.9669
										CHANNELS 3 Zrotation Xrotation Yrotation
										JOINT RightHandThumb3
										{
											OFFSET	-4.4165	-1.3703	2.1350
											CHANNELS 3 Zrotation Xrotation Yrotation
											End Site
											{
												OFFSET -2.6000 -1.0000 1.0000
											}
										}
									}
								}
								JOINT RightHandIndex1
								{
									OFFSET	-10.4665	0.4896	2.7120
									CHANNELS 3 Zrotation Xrotation Yrotation
									JOINT RightHandIndex2
									{
										OFFSET	-5.3768	0.0000	0.0000
										CHANNELS 3 Zrotation Xrotation Yrotation
										JOINT RightHandIndex3
										{
											OFFSET	-3.3855	0.0000	0.0000
											CHANNELS 3 Zrotation Xrotation Yrotation
											End Site
											{
												OFFSET -2.6000 0.0000 0.0000
											}
										}
									}
								}
								JOINT RightHandMiddle1
								{
									OFFSET	-10.7596	0.4896	0.4278
									CHANNELS 3 Zrotation Xrotation Yrotation
									JOINT RightHandMiddle2
									{
										OFFSET	-5.6168	0.0000	0.0000
										CHANNELS 3 Zrotation Xrotation Yrotation
										JOINT RightHandMiddle3
										{
											OFFSET	-3.7364	0.0000	0.0000
											CHANNELS 3 Zrotation Xrotation Yrotation
											End Site
											{
												OFFSET -2.3000 0.0000 0.0000
											}
										}
									}
								}
								JOINT RightHandRing1
								{
									OFFSET	-10.4702	0.3879	-1.9363
									CHANNELS 3 Zrotation Xrotation Yrotation
									JOINT RightHandRing2
									{
										OFFSET	-5.4013	0.0000	0.0000
										CHANNELS 3 Zrotation Xrotation Yrotation
										JOINT RightHandRing3
										{
											OFFSET	-3.3916	0.0000	0.0000
											CHANNELS 3 Zrotation Xrotation Yrotation
											End Site
											{
												OFFSET -2.2000 0.0000 0.0000
											}
										}
									}
								}
								JOINT RightHandPinky1
								{
									OFFSET	-9.9715	-0.1191	-3.9540
									CHANNELS 3 Zrotation Xrotation Yrotation
									JOINT RightHandPinky2
									{
										OFFSET	-3.6528	0.0000	0.0000
										CHANNELS 3 Zrotation Xrotation Yrotation
										JOINT RightHandPinky3
										{
											OFFSET	-2.7820	0.0000	0.0000
											CHANNELS 3 Zrotation Xrotation Yrotation
											End Site
											{
												OFFSET -2.9000 0.0000 0.0000
											}
										}
									}
								}
							}
						}
					}
				}
			}
		}
	}
	JOINT LeftUpLeg
	{
		OFFSET	9.6338	-3.2733	0.0000
		CHANNELS 3 Xrotation Yrotation Zrotation
		JOINT LeftLeg
		{
			OFFSET	0.0000	-41.7300	-1.7300
			CHANNELS 3 Xrotation Yrotation Zrotation
			JOINT LeftFoot
			{
				OFFSET	0.0126	-39.1900	-0.8477
				CHANNELS 3 Xrotation Yrotation Zrotation
				JOINT LeftToeBase
				{
					OFFSET	-0.1833	-12.1931	8.2823
					CHANNELS 3 Xrotation Yrotation Zrotation
					End Site
					{
						OFFSET 0.0000 0.0000 10.1681
					}
				}
			}
		}
	}
	JOINT RightUpLeg
	{
		OFFSET	-9.6338	-3.2733	0.0000
		CHANNELS 3 Xrotation Yrotation Zrotation
		JOINT RightLeg
		{
			OFFSET	0.0000	-41.7300	-1.7300
			CHANNELS 3 Xrotation Yrotation Zrotation
			JOINT RightFoot
			{
				OFFSET	0.0126	-39.1900	-0.8477
				CHANNELS 3 Xrotation Yrotation Zrotation
				JOINT RightToeBase
				{
					OFFSET	-0.1833	-12.1931	8.2823
					CHANNELS 3 Xrotation Yrotation Zrotation
					End Site
					{
						OFFSET 0.0032 0.0000 10.1681
					}
				}
			}
		}
	}
}
MOTION
Frames: 9
Frame Time: 0.0333333
-0.6864 84.8161 2.4187 -25.4653 -16.4510 -0.4752 14.9905 -1.3754 8.8123 8.6709 -0.9274 4.6053 8.6939 -0.8099 4.5727 6.9220 4.1330 -2.6675 -0.0000 0.0000 -0.0000 -28.2975 21.8054 -0.0873 -5.5363 5.3351 -24.6232 -71.4110 -60.1374 -1.2587 -0.0000 -0.0000 -108.0512 -1.5430 -2.2843 -71.3024 -17.9655 1.0170 3.3346 -0.2915 -1.3338 -5.0195 1.2830 0.2656 14.9618 -57.3987 1.4961 0.3650 -47.6564 -0.3314 0.7504 -7.1738 -0.0079 0.1268 -47.2996 1.3936 3.3033 -57.6008 -0.4713 0.8572 -8.6941 -0.0117 0.1535 -44.6616 1.3644 1.7591 -42.5283 -0.2671 0.6863 -5.6541 -0.0049 0.1000 -44.9163 1.3705 3.2324 -30.7266 1.9446 -2.9945 -9.6253 -0.0143 0.1697 -2.1020 -0.0682 -4.5386 28.9395 37.1374 32.2243 -0.0000 0.0000 123.8587 -22.1940 -30.4599 28.3906 17.7542 0.4984 -20.9929 2.6183 1.0489 -3.7148 -5.2744 -3.8606 3.3168 48.8251 0.8875 1.9913 35.5040 -0.4248 -1.3268 -0.0000 -0.0000 0.0000 28.3880 0.8047 -3.2503 41.3317 -0.5691 -1.5088 0.3921 0.0079 -0.0156 23.3119 0.7427 -7.8217 35.1249 -0.4160 -1.3144 10.1555 0.0729 -0.4028 7.4006 0.3167 -2.9494 37.1962 -0.4648 -1.3811 0.0000 0.0000 -0.0000 -24.1583 9.8461 23.8261 30.2578 0.4964 8.5253 -12.0114 2.5417 -20.4538 -6.3163 -0.0000 -0.0000 -11.4987 -10.5371 -10.2025 61.3589 -2.5858 -1.4919 -33.3515 -2.1726 7.2577 -1.5237 -0.0000 -0.0000 
-0.1653 85.5152 3.0283 -26.4292 -15.7260 -0.3898 14.3981 -1.4027 8.7769 8.3676 -0.9282 4.6074 8.3900 -0.8115 4.5780 6.9723 4.2694 -2.2348 -0.0000 0.0000 -0.0000 -28.1792 22.0034 1.2163 -5.3039 5.1708 -24.6584 -68.2947 -60.5038 2.3016 0.0000 -0.0000 -107.6757 -2.9720 -3.5643 -70.2606 -17.3993 1.4990 4.2375 -0.2915 -1.3338 -5.0195 2.0368 -0.2403 12.4792 -56.6835 1.4920 0.3813 -46.2002 -0.3126 0.7328 -6.4014 -0.0063 0.1132 -42.1592 1.3284 4.9456 -53.2724 -0.4081 0.8137 -8.4663 -0.0111 0.1495 -43.8938 1.3526 1.7262 -42.0816 -0.2617 0.6804 -5.5298 -0.0047 0.0978 -43.8415 1.3541 3.1879 -30.6621 1.9413 -2.9978 -9.6451 -0.0143 0.1701 -2.0376 -0.0684 -4.5338 27.9156 37.1849 32.8282 0.0000 0.0000 123.9067 -21.5659 -31.1837 27.5261 17.4725 0.3259 -20.6715 2.5272 0.8749 -2.8345 -5.2047 -3.5931 2.3714 45.7206 0.9005 2.0409 34.5360 -0.4026 -1.2951 0.0000 -0.0000 0.0000 24.8326 0.7521 -3.4533 38.9067 -0.5068 -1.4348 0.3984 0.0410 -0.0159 20.5027 0.6936 -8.3416 33.0951 -0.3706 -1.2474 9.6689 0.1388 -0.3836 5.9140 0.2699 -3.2226 36.7352 -0.4537 -1.3664 -0.0000 0.0000 0.0000 -23.3482 10.0674 23.3014 29.1145 1.6327 8.4611 -12.5866 2.6186 -20.3286 -6.1050 0.0000 -0.0000 -11.3177 -10.2289 -10.3775 59.2499 -1.9266 -1.7462 -32.1477 -2.2088 7.5242 -1.4247 0.0000 0.0000 
0.4628 86.2177 3.7188 -27.5437 -14.8927 -0.2204 13.8070 -1.3938 8.7129 8.0583 -0.9102 4.5987 8.0794 -0.7964 4.5727 7.0373 4.3691 -1.8100 -0.0000 0.0000 -0.0000 -28.0335 22.0484 2.4438 -5.1112 5.0331 -24.6803 -65.7054 -61.1775 5.0626 0.0000 -0.0000 -107.1056 -5.6650 -5.1856 -68.5926 -18.0561 1.4339 4.0916 -0.2915 -1.3338 -5.0194 2.2207 -0.3605 11.8770 -57.6194 1.4972 0.3764 -46.3889 -0.3150 0.7351 -6.4943 -0.0065 0.1148 -43.3189 1.3467 4.8156 -55.4545 -0.4395 0.8362 -8.5889 -0.0114 0.1516 -44.1972 1.3571 1.6430 -42.3709 -0.2652 0.6842 -5.6257 -0.0049 0.0995 -43.6669 1.3513 3.1807 -30.7114 1.9438 -2.9953 -9.7652 -0.0147 0.1722 -2.0297 -0.0706 -4.5652 26.9237 37.2150 33.5477 -0.0000 0.0000 123.9436 -19.5990 -32.7277 26.1054 17.5142 0.3373 -20.6927 2.5041 0.8307 -2.6114 -5.1818 -3.5059 2.0633 46.1010 0.8996 1.8016 34.1772 -0.3945 -1.2834 -0.0000 -0.0000 -0.0000 25.4768 0.7622 -3.2997 38.2922 -0.4915 -1.4157 0.4046 0.0242 -0.0161 21.0877 0.7020 -7.8960 32.9599 -0.3677 -1.2429 9.3470 0.0996 -0.3710 6.2975 0.2810 -2.8341 36.7617 -0.4544 -1.3673 -0.0000 -0.0000 -0.0000 -22.5731 10.2312 22.6430 28.0877 2.8491 8.3298 -13.2535 2.7005 -20.1341 -5.8434 0.0000 -0.0000 -11.2427 -9.7901 -10.6169 57.0407 -1.1993 -2.1475 -30.8629 -2.2721 7.9378 -1.2674 0.0000 0.0000 
1.1232 86.8489 4.4552 -28.6731 -14.1455 -0.0474 13.3881 -1.3450 8.5815 7.8288 -0.8782 4.5581 7.8481 -0.7711 4.5347 7.1096 4.4351 -1.3543 -0.0000 0.0000 -0.0000 -27.7962 22.0825 3.4277 -4.9788 4.9455 -24.7269 -63.8579 -61.9800 6.7110 0.0000 0.0000 -106.5265 -8.3472 -6.4155 -66.8411 -18.7332 1.0542 3.3639 -0.2915 -1.3338 -5.0194 2.1782 -0.3283 12.0223 -59.6344 1.5065 0.2492 -47.8311 -0.3337 0.7525 -7.2197 -0.0081 0.1276 -45.7892 1.3836 4.2220 -60.8828 -0.5212 0.8869 -7.2833 -0.0082 0.1287 -45.2243 1.3724 1.3391 -43.1090 -0.2740 0.6938 -5.7278 -0.0051 0.1013 -44.6772 1.3669 3.2225 -30.8171 1.9493 -2.9898 -9.7836 -0.0148 0.1725 -2.0904 -0.0741 -4.6274 26.3710 37.2699 34.1235 0.0000 -0.0000 123.8748 -15.7973 -34.9184 23.5986 18.2257 0.5265 -21.0480 2.5439 0.9062 -2.9934 -5.2015 -3.5820 2.3314 50.0165 0.8803 1.2352 34.4822 -0.4014 -1.2934 0.0000 0.0000 -0.0000 28.5920 0.8087 -3.1765 39.0767 -0.5111 -1.4401 0.4108 -0.0025 -0.0164 24.2094 0.7535 -7.0179 35.5966 -0.4269 -1.3298 9.2916 0.0027 -0.3688 7.8489 0.3294 -2.3514 36.9167 -0.4581 -1.3723 0.0000 -0.0000 0.0000 -21.8636 10.3366 21.9721 27.2840 4.0720 8.2003 -13.6536 2.7297 -19.8857 -5.7004 0.0000 -0.0000 -11.1408 -9.4385 -10.9643 54.9216 -0.3200 -2.5798 -29.6393 -2.3288 8.3712 -1.0751 0.0000 0.0000 
1.8140 87.3330 5.1955 -29.7035 -13.6755 0.0935 13.1999 -1.2679 8.4060 7.7071 -0.8412 4.4921 7.7245 -0.7440 4.4701 7.2350 4.4720 -0.8743 -0.0000 0.0000 -0.0000 -27.4833 22.1271 4.1869 -4.9113 4.9182 -24.8252 -62.6143 -62.3532 7.3435 -0.0000 -0.0000 -106.2314 -9.4368 -6.6507 -66.1024 -19.4019 0.7839 2.8418 -0.2915 -1.3338 -5.0194 2.0154 -0.2158 12.5638 -60.7631 1.5105 0.1940 -49.5880 -0.3571 0.7730 -8.5447 -0.0113 0.1508 -46.3378 1.3913 4.0335 -63.5039 -0.5623 0.9086 -6.0134 -0.0056 0.1064 -45.7672 1.3802 1.1787 -43.9572 -0.2844 0.7047 -6.1946 -0.0059 0.1096 -45.3313 1.3766 3.2497 -30.9353 1.9555 -2.9837 -9.8464 -0.0150 0.1736 -2.1777 -0.0771 -4.6880 26.3633 37.3151 34.3916 0.0000 0.0000 123.6569 -11.0888 -36.9092 20.2675 19.0406 0.7740 -21.5138 2.6005 1.0142 -3.5397 -5.2468 -3.7562 2.9465 55.6382 0.8260 0.6072 35.8785 -0.4335 -1.3389 0.0000 0.0000 -0.0000 33.5397 0.8617 -3.0151 42.3703 -0.5968 -1.5396 0.4170 -0.0407 -0.0166 29.0969 0.8224 -5.8980 41.0454 -0.5616 -1.5002 9.6672 -0.1164 -0.3836 10.4846 0.4080 -1.7352 37.5156 -0.4725 -1.3913 0.0000 -0.0000 0.0000 -21.3927 10.4740 21.4832 27.1249 4.9716 7.9580 -13.8442 2.7048 -19.5052 -5.7580 -0.0000 -0.0000 -10.9280 -9.2276 -11.4114 53.1235 0.6474 -3.0355 -28.5932 -2.3918 8.8382 -0.8875 -0.0000 -0.0000 
2.5944 87.5442 5.9799 -30.6017 -13.4906 0.1427 13.1934 -1.1965 8.2402 7.6771 -0.8139 4.4240 7.6932 -0.7268 4.4023 7.4025 4.4940 -0.4132 -0.0000 0.0000 -0.0000 -27.1335 22.1701 4.8193 -4.9184 4.9182 -24.8015 -62.1393 -61.7967 6.9050 0.0000 0.0000 -106.3632 -8.4063 -5.8256 -66.9613 -19.9427 0.5719 2.4330 -0.2915 -1.3338 -5.0194 1.7553 -0.0393 13.4236 -61.4586 1.5124 0.1589 -51.0933 -0.3776 0.7900 -9.6595 -0.0144 0.1703 -46.3656 1.3915 3.9420 -65.0677 -0.5873 0.9206 -5.7720 -0.0052 0.1021 -46.2831 1.3875 1.0846 -44.6776 -0.2933 0.7138 -6.5779 -0.0067 0.1163 -46.0284 1.3867 3.2788 -31.0442 1.9612 -2.9781 -9.8121 -0.0148 0.1730 -2.2326 -0.0783 -4.7154 26.6691 37.3561 34.4090 0.0000 0.0000 123.3496 -7.8440 -37.5593 17.7025 19.5276 1.0516 -22.0340 2.6922 1.1904 -4.4318 -5.3130 -4.0116 3.8507 61.4185 0.7388 0.1477 37.4548 -0.4710 -1.3893 0.0000 0.0000 -0.0000 38.9475 0.8970 -2.6360 43.1750 -0.6185 -1.5632 0.4232 -0.1000 -0.0169 33.7119 0.8705 -5.0575 45.3572 -0.6793 -1.6255 9.6888 -0.1929 -0.3845 13.2372 0.4864 -1.0953 38.3388 -0.4927 -1.4172 0.0000 0.0000 -0.0000 -21.5596 10.4408 21.2428 28.4564 5.4197 7.6573 -14.1596 2.6987 -19.0611 -5.7485 0.0000 -0.0000 -10.7440 -9.0506 -11.9332 52.0158 1.5916 -3.5303 -27.9114 -2.5022 9.4399 -0.7703 -0.0000 -0.0000 
3.3783 87.4017 6.8232 -31.3971 -13.3323 0.1724 13.3607 -1.1614 8.1349 7.7478 -0.8101 4.3801 7.7633 -0.7305 4.3578 7.5307 4.5001 0.0034 -0.0000 0.0000 -0.0000 -26.8041 22.1268 5.3986 -4.9826 4.8856 -24.4594 -62.9394 -60.4184 5.0977 0.0000 -0.0000 -106.7318 -6.0476 -4.4445 -68.7337 -20.4254 0.3608 2.0296 -0.2914 -1.3338 -5.0195 1.4061 0.1953 14.5731 -61.9564 1.5135 0.1183 -51.6970 -0.3860 0.7967 -10.1802 -0.0160 0.1794 -46.3391 1.3910 3.8367 -66.2085 -0.6057 0.9290 -5.6560 -0.0049 0.1000 -46.7393 1.3937 0.9771 -44.9337 -0.2965 0.7170 -6.8620 -0.0073 0.1213 -46.5477 1.3939 3.3006 -31.0203 1.9600 -2.9793 -9.7524 -0.0147 0.1720 -2.2153 -0.0771 -4.6931 27.0265 37.3953 34.3096 0.0000 0.0000 123.1217 -7.8610 -36.5844 17.4991 19.5804 1.3364 -22.5634 2.7935 1.3867 -5.4268 -5.3697 -4.2301 4.6267 64.4100 0.6816 -0.0157 38.6371 -0.5001 -1.4265 0.0000 0.0000 -0.0000 42.0000 0.9047 -2.5672 48.2560 -0.7636 -1.7047 0.4294 -0.1126 -0.0171 37.0238 0.8939 -4.5905 49.2709 -0.7940 -1.7314 9.5803 -0.2252 -0.3802 14.9132 0.5310 -0.7632 39.1725 -0.5135 -1.4431 -0.0000 0.0000 0.0000 -22.5140 10.0912 21.1665 31.0630 5.4351 7.3354 -13.7292 2.5964 -18.6466 -5.5568 0.0000 0.0000 -10.9719 -8.7847 -12.5585 51.9575 2.4809 -4.0556 -27.8300 -2.6718 10.1263 -0.7766 0.0000 -0.0000 
4.1174 86.9476 7.7145 -32.0011 -13.6645 0.0531 13.7952 -1.1520 8.1516 7.9701 -0.8265 4.3921 7.9860 -0.7515 4.3678 7.5922 4.4790 0.3655 -0.0000 0.0000 -0.0000 -26.5451 21.9072 5.9414 -5.0885 4.8277 -23.8882 -65.1508 -58.9278 1.9445 0.0000 0.0000 -106.9055 -3.7096 -3.4366 -70.1541 -20.9312 0.2294 1.7731 -0.2915 -1.3338 -5.0194 0.9662 0.4881 16.0160 -62.2465 1.5140 0.0701 -52.1941 -0.3929 0.8021 -10.7672 -0.0179 0.1897 -46.1338 1.3879 3.6604 -67.0180 -0.6189 0.9347 -5.7017 -0.0050 0.1009 -47.0217 1.3974 0.8800 -45.2313 -0.3003 0.7208 -7.2245 -0.0081 0.1277 -46.9307 1.3991 3.3167 -30.9344 1.9555 -2.9838 -9.6936 -0.0145 0.1709 -2.1600 -0.0745 -4.6447 27.4136 37.3119 34.1302 -0.0000 0.0000 123.0915 -10.5451 -34.8133 19.4792 19.3979 1.4340 -22.7430 2.8423 1.4818 -5.9095 -5.4055 -4.3686 5.1196 65.1908 0.6656 0.0564 39.3190 -0.5172 -1.4476 0.0000 0.0000 0.0000 43.2587 0.9049 -2.5748 54.1760 -0.9476 -1.8525 0.4357 -0.1054 -0.0174 38.2926 0.8999 -4.4129 51.4503 -0.8610 -1.7868 9.7720 -0.2334 -0.3878 15.9012 0.5564 -0.6525 40.1821 -0.5392 -1.4741 0.0000 0.0000 -0.0000 -23.6537 9.6548 21.4299 34.4226 5.0309 6.9642 -12.3966 2.3641 -18.1547 -5.6577 -0.0000 -0.0000 -10.9959 -8.5996 -13.1794 52.7384 3.3482 -4.5753 -28.2835 -2.8847 10.8130 -0.9735 -0.0000 0.0000 
4.8562 86.2887 8.6844 -32.4943 -14.4562 -0.3301 14.4929 -1.1296 8.3020 8.3356 -0.8419 4.4644 8.3524 -0.7690 4.4368 7.6788 4.4548 0.6348 -0.0000 0.0000 -0.0000 -26.3092 21.6172 6.4669 -5.2580 4.8251 -23.3782 -68.0094 -57.9497 -1.6886 -0.0000 -0.0001 -106.5664 -2.2960 -3.5245 -70.6229 -21.6451 0.1440 1.5976 -0.2915 -1.3338 -5.0194 0.5592 0.7573 17.3468 -62.2783 1.5141 0.0189 -53.2020 -0.4071 0.8129 -11.4877 -0.0203 0.2022 -45.8742 1.3840 3.4608 -68.0015 -0.6349 0.9413 -5.6226 -0.0049 0.0995 -47.2199 1.4000 0.7644 -45.9435 -0.3093 0.7296 -7.6991 -0.0092 0.1360 -47.1134 1.4016 3.3244 -30.8913 1.9532 -2.9860 -9.6188 -0.0143 0.1696 -2.1884 -0.0742 -4.6449 27.9645 37.0472 33.8527 0.0000 0.0000 123.1478 -13.7241 -33.2009 21.9224 18.8162 1.3887 -22.6535 2.8177 1.4338 -5.6657 -5.4013 -4.3524 5.0617 64.6434 0.6772 0.1930 39.4655 -0.5209 -1.4521 0.0000 -0.0000 -0.0000 43.5094 0.9046 -2.4251 56.4111 -1.0208 -1.9033 0.4346 -0.1130 -0.0173 38.1672 0.8992 -4.3940 53.1956 -0.9160 -1.8294 11.3931 -0.2284 -0.4513 15.9363 0.5575 -0.8284 40.8826 -0.5574 -1.4953 0.0000 0.0000 -0.0000 -24.7276 9.1896 22.0444 38.2350 4.2880 6.6162 -10.8940 2.1114 -17.6238 -5.7253 0.0000 0.0000 -10.6422 -8.4971 -13.6598 53.9077 4.2194 -5.0863 -29.0088 -3.1288 11.5121 -1.2286 -0.0000 -0.0000 
